<svg xmlns="http://www.w3.org/2000/svg" width="390.921" height="143.046" viewBox="0 0 390.921 143.046">
  <g id="marca_unisul-01" transform="translate(-24.079 -13.73)">
    <path id="Caminho_1" data-name="Caminho 1" d="M83.28,154.46Q81,152.2,81,147.84V133.7a.72.72,0,0,1,.83-.8h3a.72.72,0,0,1,.83.8v13.74a5.7,5.7,0,0,0,1.1,3.81,4.36,4.36,0,0,0,3.49,1.28q4.59,0,4.59-5.09V133.7a.71.71,0,0,1,.8-.8h3a.71.71,0,0,1,.8.8v14.14q0,4.35-2.31,6.62c-1.54,1.5-3.84,2.26-6.9,2.26S84.83,156,83.28,154.46Z" fill="#273585"/>
    <path id="Caminho_2" data-name="Caminho 2" d="M119.87,155.55a.68.68,0,0,1-.76.77h-2.86c-.54,0-.8-.26-.8-.77v-9.88a3.9,3.9,0,0,0-.75-2.62,3.12,3.12,0,0,0-2.48-.87,3.77,3.77,0,0,0-2.88,1.08,4.16,4.16,0,0,0-1,3v9.34a.68.68,0,0,1-.77.77H104.7a.68.68,0,0,1-.76-.77v-16a.67.67,0,0,1,.76-.76h2.63a.68.68,0,0,1,.77.66l.16,1.73q1.67-2.79,5.59-2.79a5.67,5.67,0,0,1,4.52,1.7,7,7,0,0,1,1.5,4.79Z" fill="#273585"/>
    <path id="Caminho_3" data-name="Caminho 3" d="M128.69,136.06c0,.51-.25.77-.73.77h-3a.67.67,0,0,1-.74-.77v-2.33A.66.66,0,0,1,125,133h3c.48,0,.73.25.73.76Zm0,19.49a.68.68,0,0,1-.77.77H125a.68.68,0,0,1-.77-.77v-16a.68.68,0,0,1,.77-.76h2.89a.68.68,0,0,1,.77.76Z" fill="#273585"/>
    <path id="Caminho_4" data-name="Caminho 4" d="M138.37,156.32a.94.94,0,0,1-1-.63l-5.72-16c-.2-.57,0-.86.6-.86h2.93a.88.88,0,0,1,.9.73l2.49,7.55,1.37,4.86h.1l1.36-4.86,2.46-7.55a.86.86,0,0,1,.9-.73h3a.58.58,0,0,1,.55.25.68.68,0,0,1,0,.61l-5.76,16a.92.92,0,0,1-1,.63Z" fill="#273585"/>
    <path id="Caminho_5" data-name="Caminho 5" d="M164.12,152.43c.46-.22.8-.07,1,.46l.57,1.57a.77.77,0,0,1-.5,1,12.7,12.7,0,0,1-5.79,1.3,9.5,9.5,0,0,1-6.9-2.41,9,9,0,0,1-2.48-6.74,9.48,9.48,0,0,1,2.28-6.77,8.13,8.13,0,0,1,6.21-2.41,7.64,7.64,0,0,1,5.92,2.28,8.64,8.64,0,0,1,2.09,6.07v1.63a.71.71,0,0,1-.8.8H154.37a4.67,4.67,0,0,0,1.68,3.14,5.67,5.67,0,0,0,3.71,1.15,9.74,9.74,0,0,0,4.36-1.07Zm-9.85-6.06h8.25v-.2a5,5,0,0,0-1-3.32,3.65,3.65,0,0,0-2.95-1.2q-3.97,0-4.3,4.72Z" fill="#273585"/>
    <path id="Caminho_6" data-name="Caminho 6" d="M173.57,138.79a.7.7,0,0,1,.79.7l.17,2.62a6.06,6.06,0,0,1,2-2.39,5.32,5.32,0,0,1,3.33-1.06.76.76,0,0,1,.51.13.71.71,0,0,1,.15.53v3.09q0,.6-.63.6h-1.06a3.73,3.73,0,0,0-3,1.48,5.32,5.32,0,0,0-1.2,3.47v7.65a.68.68,0,0,1-.76.77h-2.86a.7.7,0,0,1-.8-.77v-16c0-.51.27-.76.8-.76Z" fill="#273585"/>
    <path id="Caminho_7" data-name="Caminho 7" d="M188.83,156.69a15.441,15.441,0,0,1-5.75-1c-.47-.16-.63-.44-.5-.86l.5-1.73a.64.64,0,0,1,.93-.5,12.57,12.57,0,0,0,4.16.73,6.22,6.22,0,0,0,2.64-.42,1.46,1.46,0,0,0,.85-1.44,1.66,1.66,0,0,0-.81-1.44,13.75,13.75,0,0,0-2.75-1.19,16.12,16.12,0,0,1-3.59-1.57,4.53,4.53,0,0,1-1.86-4,4.33,4.33,0,0,1,1.71-3.7,8.25,8.25,0,0,1,4.94-1.26,14,14,0,0,1,5.42.93c.45.2.6.5.47.9l-.5,1.66a.64.64,0,0,1-.93.5,13,13,0,0,0-3.79-.66,5,5,0,0,0-2.28.39,1.41,1.41,0,0,0-.72,1.34,1.54,1.54,0,0,0,.5,1.14,3.8,3.8,0,0,0,1.12.75c.41.18,1.07.42,2,.73a13.39,13.39,0,0,1,4.06,2.13,4.23,4.23,0,0,1,1.37,3.4Q196,156.69,188.83,156.69Z" fill="#273585"/>
    <path id="Caminho_8" data-name="Caminho 8" d="M204,136.06c0,.51-.24.77-.73.77h-3c-.49,0-.73-.26-.73-.77v-2.33c0-.51.24-.76.73-.76h3c.49,0,.73.25.73.76Zm0,19.49a.68.68,0,0,1-.76.77h-2.9a.68.68,0,0,1-.76-.77v-16a.67.67,0,0,1,.76-.76h2.9a.67.67,0,0,1,.76.76Z" fill="#273585"/>
    <path id="Caminho_9" data-name="Caminho 9" d="M220.84,153.86a4.6,4.6,0,0,1-2.27,2.09,7.93,7.93,0,0,1-3.42.74,6.76,6.76,0,0,1-5.47-2.32q-2-2.31-2-6.83t2-6.84a6.75,6.75,0,0,1,5.47-2.31,7.66,7.66,0,0,1,3.34.73,4.59,4.59,0,0,1,2.21,2V133.6c0-.48.26-.73.77-.73h2.86c.53,0,.8.25.8.73v21.92a.7.7,0,0,1-.8.77h-2.6c-.48,0-.75-.21-.79-.63ZM216.41,142a3.8,3.8,0,0,0-3.14,1.31,9.23,9.23,0,0,0,0,8.55,3.77,3.77,0,0,0,3.14,1.32c2.89,0,4.33-1.87,4.33-5.59S219.3,142,216.41,142Z" fill="#273585"/>
    <path id="Caminho_10" data-name="Caminho 10" d="M244.49,155.55a.7.7,0,0,1-.8.77h-2.46a.67.67,0,0,1-.77-.63l-.13-1.8q-1.76,2.73-6.05,2.73a6.16,6.16,0,0,1-4.16-1.33,4.72,4.72,0,0,1-1.53-3.76,5.25,5.25,0,0,1,.56-2.48,4.51,4.51,0,0,1,1.52-1.66,8.06,8.06,0,0,1,2.49-1,20.85,20.85,0,0,1,3.16-.53c1.08-.1,2.37-.16,3.88-.19v-.76a2.8,2.8,0,0,0-.9-2.3,4.62,4.62,0,0,0-2.89-.73,13.57,13.57,0,0,0-5,1,.69.69,0,0,1-1-.47l-.6-1.83c-.13-.39,0-.7.47-.93a16.81,16.81,0,0,1,6.65-1.26q7.51,0,7.52,6.32Zm-4.29-7.28q-1.86.06-3.06.18a12.611,12.611,0,0,0-2.28.43,3.26,3.26,0,0,0-1.58.9,2.21,2.21,0,0,0-.5,1.48,2.07,2.07,0,0,0,.77,1.7,3.31,3.31,0,0,0,2.16.63,4.69,4.69,0,0,0,3.34-1.08,3.67,3.67,0,0,0,1.15-2.81Z" fill="#273585"/>
    <path id="Caminho_11" data-name="Caminho 11" d="M261.12,153.86a4.58,4.58,0,0,1-2.26,2.09,7.94,7.94,0,0,1-3.43.74,6.77,6.77,0,0,1-5.47-2.32q-1.94-2.31-1.94-6.83T250,140.7a6.76,6.76,0,0,1,5.47-2.31,7.7,7.7,0,0,1,3.35.73,4.59,4.59,0,0,1,2.21,2V133.6c0-.48.25-.73.76-.73h2.86c.54,0,.8.25.8.73v21.92c0,.51-.26.77-.8.77H262c-.49,0-.75-.21-.8-.63ZM256.7,142a3.8,3.8,0,0,0-3.15,1.31,9.31,9.31,0,0,0,0,8.55,3.78,3.78,0,0,0,3.15,1.32c2.88,0,4.32-1.87,4.32-5.59S259.58,142,256.7,142Z" fill="#273585"/>
    <path id="Caminho_12" data-name="Caminho 12" d="M283.24,152.43c.47-.22.8-.07,1,.46l.57,1.57a.78.78,0,0,1-.5,1,12.7,12.7,0,0,1-5.79,1.3,9.5,9.5,0,0,1-6.9-2.41,9,9,0,0,1-2.48-6.74,9.48,9.48,0,0,1,2.28-6.77,8.12,8.12,0,0,1,6.2-2.41,7.63,7.63,0,0,1,5.92,2.28,8.6,8.6,0,0,1,2.1,6.07v1.63a.71.71,0,0,1-.8.8H273.5a4.67,4.67,0,0,0,1.68,3.14,5.67,5.67,0,0,0,3.71,1.15A9.67,9.67,0,0,0,283.24,152.43Zm-9.84-6.06h8.25v-.2a5,5,0,0,0-1-3.32,3.62,3.62,0,0,0-2.94-1.2Q273.73,141.65,273.4,146.37Z" fill="#273585"/>
    <path id="Caminho_13" data-name="Caminho 13" d="M248.36,53.64A11,11,0,0,0,237.43,42.8h-2.49a2.36,2.36,0,0,0-2.36,2.35v58.26a11,11,0,0,0,10.93,10.84H246a2.36,2.36,0,0,0,2.36-2.36Z" fill="#273585"/>
    <path id="Caminho_14" data-name="Caminho 14" d="M80.53,86.12c0,17.79,9.59,28.08,30.75,28.12h.14c21.16,0,30.76-10.33,30.76-28.12V53a10.16,10.16,0,0,0-10.12-10.14h-2.31A2.19,2.19,0,0,0,127.57,45V86.12c0,9.11-3,14.19-16.23,14.21s-16.23-5.1-16.23-14.21V52.91a10.22,10.22,0,0,0-7.31-9.68,19.86,19.86,0,0,0-5.12-.41A2.19,2.19,0,0,0,80.53,45Z" fill="#273585"/>
    <path id="Caminho_15" data-name="Caminho 15" d="M325.41,86.12c0,17.79,9.6,28.08,30.76,28.12h.14c21.16,0,30.75-10.33,30.75-28.12V53a10.16,10.16,0,0,0-10.12-10.14h-2.3A2.19,2.19,0,0,0,372.45,45V86.11c0,9.11-3,14.19-16.23,14.21S340,95.23,340,86.12V52.91a10.21,10.21,0,0,0-7.3-9.68,20,20,0,0,0-5.13-.41A2.19,2.19,0,0,0,325.41,45Z" fill="#273585"/>
    <path id="Caminho_16" data-name="Caminho 16" d="M218.21,68.84c0-17.79-9.6-28.08-30.76-28.12h-.14c-21.16,0-30.76,10.33-30.76,28.12v35.25a10.17,10.17,0,0,0,10.12,10.14H169a2.2,2.2,0,0,0,2.19-2.19V68.84c0-9.11,3-14.19,16.23-14.21s16.23,5.1,16.23,14.21v35.3a10.21,10.21,0,0,0,7.3,9.68,20.37,20.37,0,0,0,5.12.41,2.2,2.2,0,0,0,2.19-2.19Z" fill="#273585"/>
    <path id="Caminho_17" data-name="Caminho 17" d="M261.49,60c0,11.07,5.5,15.48,14.33,19.31l15.64,6.81c7.1,3.12,9.27,4.83,9.27,8.52,0,4.68-3.91,6.1-13.46,6.1-.56,0-4.26-.09-4.26-.09a68.67,68.67,0,0,1-19.7-3.83,2.18,2.18,0,0,0-1.9.21c-2.5,2.4,1.1,14.36,6.78,15.61,0,0,3.65.66,6.32.91.07,0,10.34.68,11.45.68,20.57,0,29.25-6.25,29.25-19.88,0-11.35-5.79-16-15.49-20l-16.8-7.1c-4.92-2.13-6.81-3.83-6.81-7.24,0-4.12,3-5.82,12.75-5.82A58.59,58.59,0,0,1,303.94,56c1.07.3,5.14,2,6.53,1.08,2.56-2.14-.68-13.44-6.31-14.83h0a79.72,79.72,0,0,0-15-1.51c-19.41,0-27.66,6.25-27.66,19.31" fill="#273585"/>
    <path id="Caminho_18" data-name="Caminho 18" d="M415,24.54a10.93,10.93,0,0,0-10.9-10.81h-2.5a2.36,2.36,0,0,0-2.35,2.35v87.56a10.93,10.93,0,0,0,10.9,10.81h2.48A2.36,2.36,0,0,0,415,112.1Z" fill="#273585"/>
    <path id="Caminho_19" data-name="Caminho 19" d="M33.62,114.25H27A2.92,2.92,0,0,1,24.4,110L40.61,78.19,24.43,47.07A2.92,2.92,0,0,1,27,42.8h6.6c6.45,0,11.08,2.61,14.14,8L63.37,77.46a1.43,1.43,0,0,1,0,1.44L48,105.61C44.5,111.51,39.93,114.25,33.62,114.25ZM26.91,45.66,43.48,77.53a1.39,1.39,0,0,1,0,1.3l-16.6,32.56h6.73c5.35,0,8.9-2.16,11.9-7.22l15-26-15.2-26c-2.55-4.46-6.26-6.53-11.67-6.53Z" fill="#a9be16"/>
  </g>
</svg>
